<svg width="28" height="28" viewBox="0 0 28 28" fill="none" xmlns="http://www.w3.org/2000/svg">
<path fill-rule="evenodd" clip-rule="evenodd" d="M16.2979 7.54791C16.6397 7.2062 17.1937 7.2062 17.5354 7.54791L23.3687 13.3812C23.7104 13.7229 23.7104 14.277 23.3687 14.6187L17.5354 20.452C17.1937 20.7937 16.6397 20.7937 16.2979 20.452C15.9562 20.1103 15.9562 19.5563 16.2979 19.2146L20.6376 14.875L11.0833 14.875C10.2511 14.875 8.98335 15.1318 7.94877 15.8767C6.9588 16.5895 6.125 17.7851 6.125 19.8333C6.125 20.3165 5.73325 20.7083 5.25 20.7083C4.76675 20.7083 4.375 20.3165 4.375 19.8333C4.375 17.2148 5.48565 15.4938 6.92623 14.4565C8.3222 13.4514 9.97109 13.125 11.0833 13.125L20.6376 13.125L16.2979 8.78534C15.9562 8.44364 15.9562 7.88962 16.2979 7.54791Z" fill="#1C1C1E"/>
</svg>
