<svg width="28" height="28" viewBox="0 0 28 28" fill="none" xmlns="http://www.w3.org/2000/svg">
<path d="M13.9331 1.45831H15.75C16.2332 1.45831 16.625 1.85006 16.625 2.33331C16.625 2.81656 16.2332 3.20831 15.75 3.20831H14C11.2254 3.20831 9.23248 3.21017 7.71583 3.41408C6.22436 3.6146 5.32519 3.99598 4.66059 4.66058C3.99599 5.32517 3.61462 6.22435 3.41409 7.71582C3.21019 9.23246 3.20833 11.2254 3.20833 14C3.20833 16.7746 3.21019 18.7675 3.41409 20.2841C3.61462 21.7756 3.99599 22.6748 4.66059 23.3394C5.32519 24.004 6.22436 24.3854 7.71583 24.5859C9.23248 24.7898 11.2254 24.7916 14 24.7916C16.7746 24.7916 18.7675 24.7898 20.2842 24.5859C21.7756 24.3854 22.6748 24.004 23.3394 23.3394C24.004 22.6748 24.3854 21.7756 24.5859 20.2841C24.7898 18.7675 24.7917 16.7746 24.7917 14V12.25C24.7917 11.7667 25.1834 11.375 25.6667 11.375C26.1499 11.375 26.5417 11.7667 26.5417 12.25V14.0669C26.5417 16.76 26.5417 18.8706 26.3203 20.5173C26.0937 22.2028 25.6208 23.5329 24.5768 24.5768C23.5329 25.6208 22.2029 26.0937 20.5173 26.3203C18.8706 26.5417 16.7601 26.5417 14.0669 26.5416H13.9331C11.2399 26.5417 9.12939 26.5417 7.48265 26.3203C5.79713 26.0937 4.4671 25.6208 3.42315 24.5768C2.37921 23.5329 1.90631 22.2028 1.6797 20.5173C1.4583 18.8706 1.45831 16.76 1.45833 14.0669V13.933C1.45831 11.2399 1.4583 9.12937 1.6797 7.48264C1.90631 5.79711 2.37921 4.46708 3.42315 3.42314C4.4671 2.37919 5.79713 1.9063 7.48265 1.67968C9.12939 1.45829 11.2399 1.4583 13.9331 1.45831Z" fill="#1C1C1E"/>
<path d="M20.3935 10.9945C20.7647 11.3038 20.8149 11.8556 20.5055 12.2268L18.3719 14.7872C17.9887 15.2471 17.6432 15.6618 17.3205 15.9532C16.9694 16.2702 16.5272 16.5526 15.9444 16.5526C15.3617 16.5526 14.9195 16.2702 14.5684 15.9532C14.2457 15.6618 13.9002 15.2471 13.517 14.7872L13.1759 14.3778C12.7433 13.8587 12.4776 13.5432 12.2588 13.3456C12.1573 13.254 12.0971 13.2174 12.0682 13.2035C12.0649 13.2019 12.0622 13.2006 12.0599 13.1997L12.0556 13.1979C12.0529 13.1989 12.0487 13.2006 12.0429 13.2035C12.014 13.2174 11.9538 13.254 11.8523 13.3456C11.6335 13.5432 11.3678 13.8587 10.9352 14.3778L8.83886 16.8935C8.52949 17.2647 7.97774 17.3149 7.6065 17.0055C7.23526 16.6961 7.1851 16.1444 7.49447 15.7732L9.62811 13.2128C10.0113 12.7528 10.3568 12.3382 10.6795 12.0468C11.0306 11.7297 11.4728 11.4474 12.0556 11.4474C12.6383 11.4474 13.0805 11.7297 13.4316 12.0468C13.7543 12.3382 14.0998 12.7528 14.483 13.2128L14.8241 13.6221C15.2567 14.1412 15.5224 14.4567 15.7412 14.6544C15.8427 14.746 15.9029 14.7825 15.9318 14.7965C15.9376 14.7993 15.9418 14.801 15.9444 14.802C15.9444 14.802 15.9476 14.8008 15.9499 14.7998C15.9499 14.7998 15.9543 14.7978 15.9571 14.7965C15.986 14.7825 16.0462 14.746 16.1477 14.6544C16.3665 14.4567 16.6322 14.1412 17.0648 13.6221L19.1611 11.1065C19.4705 10.7352 20.0222 10.6851 20.3935 10.9945Z" fill="#1C1C1E"/>
<path fill-rule="evenodd" clip-rule="evenodd" d="M22.1667 1.45831C19.7504 1.45831 17.7917 3.41707 17.7917 5.83331C17.7917 8.24956 19.7504 10.2083 22.1667 10.2083C24.5829 10.2083 26.5417 8.24956 26.5417 5.83331C26.5417 3.41707 24.5829 1.45831 22.1667 1.45831ZM19.5417 5.83331C19.5417 4.38357 20.7169 3.20831 22.1667 3.20831C23.6164 3.20831 24.7917 4.38357 24.7917 5.83331C24.7917 7.28306 23.6164 8.45831 22.1667 8.45831C20.7169 8.45831 19.5417 7.28306 19.5417 5.83331Z" fill="#1C1C1E"/>
</svg>
