<svg width="28" height="28" viewBox="0 0 28 28" fill="none" xmlns="http://www.w3.org/2000/svg">
<path d="M24.0885 9.94106L22.2862 11.0117L15.1312 15.2532C14.5891 15.5513 13.9116 15.5513 13.3831 15.2532L6.22802 11.0117L4.42572 9.94106C3.21966 9.2364 3.21966 7.42061 4.42572 6.71595L13.3966 1.39025C13.9387 1.09212 14.6162 1.09212 15.1447 1.39025L24.1156 6.71595C25.2946 7.42061 25.2946 9.24995 24.0885 9.94106Z" stroke="black" stroke-width="1.5" stroke-linecap="round" stroke-linejoin="round"/>
<path d="M24.9146 13.151C25.145 13.937 24.874 14.8584 24.088 15.3192L15.1171 20.6448C14.575 20.9429 13.8975 20.9429 13.369 20.6448L4.39808 15.3192C3.66632 14.8855 3.38173 14.0453 3.54435 13.2865" stroke="black" stroke-width="1.5" stroke-linecap="round" stroke-linejoin="round"/>
<path d="M24.9406 18.6138C25.1303 19.3862 24.8457 20.2535 24.1004 20.7007L15.1295 26.0264C14.5874 26.3245 13.9099 26.3245 13.3814 26.0264L4.41047 20.7007C3.71936 20.2942 3.42124 19.5218 3.52965 18.8036" stroke="black" stroke-width="1.5" stroke-linecap="round" stroke-linejoin="round"/>
</svg>
