<svg width="29" height="28" viewBox="0 0 29 28" fill="none" xmlns="http://www.w3.org/2000/svg">
<path fill-rule="evenodd" clip-rule="evenodd" d="M14.6667 1.45837C13.9611 1.45837 13.3115 1.63371 12.6002 1.92787C11.9134 2.2119 11.1157 2.63053 10.1224 3.15182L7.71028 4.41763C6.49115 5.05739 5.51551 5.56937 4.76221 6.07244C3.98179 6.59362 3.3807 7.14239 2.94297 7.88575C2.5067 8.62662 2.31044 9.42885 2.21633 10.3842C2.12498 11.3115 2.12498 12.452 2.12499 13.8864V14.1137C2.12498 15.548 2.12498 16.6885 2.21633 17.6159C2.31044 18.5712 2.5067 19.3735 2.94297 20.1143C3.3807 20.8577 3.98179 21.4065 4.76221 21.9276C5.51547 22.4307 6.49104 22.9426 7.71009 23.5824L10.1223 24.8482C11.1156 25.3695 11.9134 25.7882 12.6002 26.0722C13.3115 26.3664 13.9611 26.5417 14.6667 26.5417C15.3722 26.5417 16.0218 26.3664 16.7331 26.0722C17.4199 25.7882 18.2176 25.3695 19.2109 24.8483L21.623 23.5825C22.8422 22.9427 23.8178 22.4307 24.5711 21.9276C25.3515 21.4065 25.9526 20.8577 26.3904 20.1143C26.8266 19.3735 27.0229 18.5712 27.117 17.6159C27.2083 16.6885 27.2083 15.548 27.2083 14.1137V13.8863C27.2083 12.452 27.2083 11.3115 27.117 10.3842C27.0229 9.42885 26.8266 8.62662 26.3904 7.88575C25.9526 7.14239 25.3515 6.59362 24.5711 6.07244C23.8178 5.56937 22.8422 5.05739 21.623 4.41763L19.211 3.15184C18.2176 2.63054 17.4199 2.21191 16.7331 1.92787C16.0218 1.63371 15.3722 1.45837 14.6667 1.45837ZM10.8993 4.72046C11.9373 4.17574 12.6647 3.79497 13.269 3.54503C13.8573 3.30176 14.2705 3.20837 14.6667 3.20837C15.0628 3.20837 15.476 3.30176 16.0643 3.54503C16.6687 3.79497 17.3961 4.17574 18.4341 4.72046L20.7674 5.94494C22.0387 6.6121 22.9319 7.08208 23.5992 7.52775C23.9285 7.74762 24.1872 7.95178 24.396 8.15707L14.6667 13.0218L4.93729 8.15707C5.14615 7.95179 5.40486 7.74762 5.7341 7.52775C6.40145 7.08208 7.29462 6.61209 8.56593 5.94494L10.8993 4.72046ZM4.09396 9.69197C4.03503 9.9415 3.9905 10.2249 3.9579 10.5558C3.87597 11.3874 3.87499 12.4419 3.87499 13.9318V14.0683C3.87499 15.5582 3.87597 16.6127 3.9579 17.4443C4.03802 18.2577 4.19025 18.7836 4.45094 19.2264C4.71018 19.6666 5.08514 20.0389 5.7341 20.4723C6.40145 20.918 7.29462 21.388 8.56593 22.0551L10.8993 23.2796C11.9373 23.8243 12.6647 24.2051 13.269 24.4551C13.4599 24.534 13.6323 24.5971 13.7917 24.6464V14.5408L4.09396 9.69197ZM15.5417 24.6464C15.701 24.5971 15.8735 24.534 16.0643 24.4551C16.6687 24.2051 17.3961 23.8243 18.4341 23.2796L20.7674 22.0551C22.0387 21.388 22.9319 20.918 23.5992 20.4723C24.2482 20.0389 24.6231 19.6666 24.8824 19.2264C25.1431 18.7836 25.2953 18.2577 25.3754 17.4443C25.4573 16.6127 25.4583 15.5582 25.4583 14.0683V13.9318C25.4583 12.4419 25.4573 11.3874 25.3754 10.5558C25.3428 10.2249 25.2983 9.94149 25.2394 9.69196L15.5417 14.5408V24.6464Z" fill="#1C1C1E"/>
</svg>
