<svg width="29" height="28" viewBox="0 0 29 28" fill="none" xmlns="http://www.w3.org/2000/svg">
<path fill-rule="evenodd" clip-rule="evenodd" d="M21.4392 2.97356C20.7947 2.61271 20.1087 2.57636 19.3834 2.667C18.6945 2.7531 17.8564 2.97093 16.8493 3.23271L14.4946 3.84464C13.4879 4.10624 12.6496 4.32406 12.0083 4.58373C11.3339 4.85675 10.7508 5.22358 10.3726 5.85894C9.99202 6.49831 9.95424 7.18182 10.0491 7.89574C10.1385 8.56885 10.3642 9.38569 10.6331 10.3588L11.2661 12.65C11.535 13.6237 11.7606 14.4404 12.03 15.0663C12.316 15.7308 12.698 16.2965 13.3462 16.6594C13.9907 17.0203 14.6768 17.0566 15.402 16.966C16.0909 16.8799 16.9289 16.6621 17.9361 16.4003L20.2908 15.7883C21.2975 15.5268 22.1358 15.3089 22.7771 15.0493C23.4515 14.7762 24.0346 14.4094 24.4128 13.7741C24.7934 13.1347 24.8312 12.4512 24.7363 11.7373C24.6469 11.0641 24.4212 10.2473 24.1523 9.27414L23.5193 6.98292C23.2504 6.00927 23.0248 5.19256 22.7554 4.56673C22.4694 3.90223 22.0874 3.33654 21.4392 2.97356ZM17.2323 4.9413C18.3114 4.66086 19.0384 4.47373 19.6004 4.40349C20.139 4.33618 20.3967 4.39553 20.5841 4.50047C20.7677 4.60328 20.9431 4.78253 21.148 5.25856C21.3641 5.76063 21.5592 6.45965 21.8488 7.50806L22.449 9.68047C22.7387 10.7291 22.93 11.4288 23.0016 11.9677C23.0696 12.4796 23.0087 12.7115 22.909 12.8789C22.807 13.0503 22.622 13.2241 22.1204 13.4272C21.5981 13.6387 20.8723 13.8291 19.793 14.1096L17.5531 14.6917C16.474 14.9721 15.747 15.1593 15.185 15.2295C14.6464 15.2968 14.3887 15.2375 14.2013 15.1325C14.0177 15.0297 13.8423 14.8505 13.6374 14.3744C13.4214 13.8724 13.2262 13.1733 12.9366 12.1249L12.3364 9.95252C12.0467 8.90385 11.8554 8.2042 11.7838 7.66526C11.7158 7.1534 11.7767 6.92147 11.8764 6.75407C11.9784 6.58265 12.1634 6.40889 12.665 6.20583C13.1873 5.99434 13.9131 5.80389 14.9925 5.52339L17.2323 4.9413Z" fill="#1C1C1E"/>
<path fill-rule="evenodd" clip-rule="evenodd" d="M4.06731 5.51214C3.60165 5.38295 3.11943 5.6557 2.99023 6.12136C2.86104 6.58702 3.13379 7.06925 3.59945 7.19844L5.5871 7.74991C6.08363 7.88767 6.4534 8.26275 6.57972 8.71998L8.85624 16.9603C8.76878 16.9775 8.68136 16.9974 8.59409 17.0201C6.28753 17.6195 4.87806 19.9398 5.51125 22.2317C6.14138 24.5126 8.53733 25.8281 10.8348 25.2311C12.8453 24.7086 14.1742 22.8786 14.0629 20.8996L23.8868 18.3465C24.3545 18.225 24.6351 17.7473 24.5136 17.2795C24.392 16.8118 23.9143 16.5312 23.4466 16.6528L13.6021 19.2112C13.0091 18.0592 11.9199 17.2581 10.6779 16.9822L8.26653 8.25397C7.97121 7.18503 7.12466 6.3604 6.05496 6.06361L4.06731 5.51214ZM9.03426 18.7138C10.4479 18.3464 11.8665 19.167 12.2308 20.4854C12.592 21.7929 11.7991 23.1723 10.3946 23.5373C8.98091 23.9047 7.56231 23.0842 7.19806 21.7657C6.83685 20.4583 7.62972 19.0788 9.03426 18.7138Z" fill="#1C1C1E"/>
</svg>
