<svg width="28" height="28" viewBox="0 0 28 28" fill="none" xmlns="http://www.w3.org/2000/svg">
<path fill-rule="evenodd" clip-rule="evenodd" d="M11.7021 7.54797C12.0438 7.88968 12.0438 8.4437 11.7021 8.78541L7.36244 13.125L16.9167 13.125C18.0289 13.125 19.6778 13.4515 21.0738 14.4566C22.5144 15.4938 23.625 17.2148 23.625 19.8334C23.625 20.3166 23.2332 20.7084 22.75 20.7084C22.2668 20.7084 21.875 20.3166 21.875 19.8334C21.875 17.7852 21.0412 16.5896 20.0512 15.8768C19.0166 15.1319 17.7489 14.875 16.9167 14.875L7.36244 14.875L11.7021 19.2146C12.0438 19.5563 12.0438 20.1104 11.7021 20.4521C11.3603 20.7938 10.8063 20.7938 10.4646 20.4521L4.63128 14.6187C4.28957 14.277 4.28957 13.723 4.63128 13.3813L10.4646 7.54797C10.8063 7.20626 11.3603 7.20626 11.7021 7.54797Z" fill="#1C1C1E"/>
</svg>
