<svg width="29" height="28" viewBox="0 0 29 28" fill="none" xmlns="http://www.w3.org/2000/svg">
<path d="M18.1667 2.33331V14C18.1667 15.2833 17.1167 16.3333 15.8333 16.3333H2.99999V6.99998C2.99999 4.42165 5.08833 2.33331 7.66666 2.33331H18.1667Z" stroke="black" stroke-width="1.5" stroke-linecap="round" stroke-linejoin="round"/>
<path d="M26.3333 16.3333V19.8333C26.3333 21.77 24.77 23.3333 22.8333 23.3333H21.6667C21.6667 22.05 20.6167 21 19.3333 21C18.05 21 17 22.05 17 23.3333H12.3333C12.3333 22.05 11.2833 21 9.99999 21C8.71666 21 7.66666 22.05 7.66666 23.3333H6.49999C4.56333 23.3333 2.99999 21.77 2.99999 19.8333V16.3333H15.8333C17.1167 16.3333 18.1667 15.2833 18.1667 14V5.83331H20.3133C21.1533 5.83331 21.9233 6.28832 22.3433 7.01166L24.3383 10.5H22.8333C22.1917 10.5 21.6667 11.025 21.6667 11.6666V15.1666C21.6667 15.8083 22.1917 16.3333 22.8333 16.3333H26.3333Z" stroke="black" stroke-width="1.5" stroke-linecap="round" stroke-linejoin="round"/>
<path d="M9.99999 25.6667C11.2887 25.6667 12.3333 24.622 12.3333 23.3333C12.3333 22.0447 11.2887 21 9.99999 21C8.71133 21 7.66666 22.0447 7.66666 23.3333C7.66666 24.622 8.71133 25.6667 9.99999 25.6667Z" stroke="black" stroke-width="1.5" stroke-linecap="round" stroke-linejoin="round"/>
<path d="M19.3333 25.6667C20.622 25.6667 21.6667 24.622 21.6667 23.3333C21.6667 22.0447 20.622 21 19.3333 21C18.0447 21 17 22.0447 17 23.3333C17 24.622 18.0447 25.6667 19.3333 25.6667Z" stroke="black" stroke-width="1.5" stroke-linecap="round" stroke-linejoin="round"/>
<path d="M26.3333 14V16.3333H22.8333C22.1917 16.3333 21.6667 15.8083 21.6667 15.1667V11.6667C21.6667 11.025 22.1917 10.5 22.8333 10.5H24.3383L26.3333 14Z" stroke="black" stroke-width="1.5" stroke-linecap="round" stroke-linejoin="round"/>
</svg>
