<svg width="29" height="28" viewBox="0 0 29 28" fill="none" xmlns="http://www.w3.org/2000/svg">
<path d="M5.92672 8.23178C5.92672 6.77462 7.10856 5.59278 8.56456 5.59278H9.76506C10.4604 5.59278 11.1289 5.31745 11.6236 4.82628L12.4624 3.98628C13.4902 2.95378 15.1609 2.94912 16.1934 3.97695L16.2039 3.98628L17.0439 4.82628C17.5374 5.31745 18.2059 5.59278 18.9024 5.59278H20.1017C21.5589 5.59278 22.7407 6.77462 22.7407 8.23178V9.42995C22.7407 10.1276 23.0161 10.795 23.5072 11.2896L24.3472 12.1296C25.3797 13.1575 25.3856 14.827 24.3577 15.8606L24.3472 15.8711L23.5072 16.7111C23.0161 17.2035 22.7407 17.8731 22.7407 18.5685V19.769C22.7407 21.2261 21.5589 22.4068 20.1017 22.4068H18.9024C18.2059 22.4068 17.5374 22.6833 17.0439 23.1745L16.2039 24.0133C15.1772 25.047 13.5066 25.0516 12.4729 24.0238C12.4694 24.0203 12.4659 24.0168 12.4624 24.0133L11.6236 23.1745C11.1289 22.6833 10.4604 22.4068 9.76506 22.4068H8.56456C7.10856 22.4068 5.92672 21.2261 5.92672 19.769V18.5685C5.92672 17.8731 5.65022 17.2035 5.15906 16.7111L4.32022 15.8711C3.28656 14.8433 3.28189 13.1726 4.30972 12.1401L4.32022 12.1296L5.15906 11.2896C5.65022 10.795 5.92672 10.1276 5.92672 9.42995V8.23178" stroke="black" stroke-width="1.5" stroke-linecap="round" stroke-linejoin="round"/>
<path d="M11.3351 16.9978L17.3317 11.0011" stroke="black" stroke-width="1.5" stroke-linecap="round" stroke-linejoin="round"/>
<path d="M17.3279 17.8762C17.0945 17.8762 16.8729 17.7828 16.7095 17.6195C16.6279 17.5378 16.5695 17.4328 16.5229 17.3278C16.4762 17.2228 16.4529 17.119 16.4529 17.0012C16.4529 16.8845 16.4762 16.7678 16.5229 16.6628C16.5695 16.5578 16.6279 16.4645 16.7095 16.3828C17.0362 16.0562 17.6195 16.0562 17.9462 16.3828C18.0279 16.4645 18.0979 16.5578 18.1445 16.6628C18.1795 16.7678 18.2029 16.8845 18.2029 17.0012C18.2029 17.119 18.1795 17.2228 18.1445 17.3278C18.0979 17.4328 18.0279 17.5378 17.9462 17.6195C17.7829 17.7828 17.5612 17.8762 17.3279 17.8762Z" fill="black"/>
<path d="M11.3311 11.88C11.2144 11.88 11.1094 11.8555 11.0044 11.8088C10.8994 11.7621 10.7944 11.705 10.7128 11.6233C10.6311 11.53 10.5728 11.4366 10.5261 11.3316C10.4794 11.2255 10.4561 11.1216 10.4561 11.005C10.4561 10.8871 10.4794 10.7716 10.5261 10.6666C10.5728 10.5616 10.6311 10.4566 10.7128 10.3866C11.0511 10.0588 11.6228 10.0588 11.9494 10.3866C12.1128 10.5488 12.2061 10.7716 12.2061 11.005C12.2061 11.1216 12.1944 11.2255 12.1478 11.3316C12.1011 11.4366 12.0311 11.53 11.9494 11.6233C11.8678 11.705 11.7744 11.7621 11.6694 11.8088C11.5644 11.8555 11.4478 11.88 11.3311 11.88Z" fill="black"/>
</svg>
