<svg width="28" height="28" viewBox="0 0 28 28" fill="none" xmlns="http://www.w3.org/2000/svg">
<path d="M18.6667 15.05V19.95C18.6667 24.0333 17.0333 25.6666 12.95 25.6666H8.04999C3.96666 25.6666 2.33333 24.0333 2.33333 19.95V15.05C2.33333 10.9666 3.96666 9.33331 8.04999 9.33331H12.95C17.0333 9.33331 18.6667 10.9666 18.6667 15.05Z" stroke="black" stroke-width="1.5" stroke-linecap="round" stroke-linejoin="round"/>
<path d="M25.6667 8.04998V12.95C25.6667 17.0333 24.0333 18.6666 19.95 18.6666H18.6667V15.05C18.6667 10.9666 17.0333 9.33331 12.95 9.33331H9.33333V8.04998C9.33333 3.96665 10.9667 2.33331 15.05 2.33331H19.95C24.0333 2.33331 25.6667 3.96665 25.6667 8.04998Z" stroke="black" stroke-width="1.5" stroke-linecap="round" stroke-linejoin="round"/>
</svg>
