<svg width="29" height="28" viewBox="0 0 29 28" fill="none" xmlns="http://www.w3.org/2000/svg">
<path fill-rule="evenodd" clip-rule="evenodd" d="M12.2675 1.45831L12.3333 1.45831C12.8166 1.45831 13.2083 1.85006 13.2083 2.33331C13.2083 2.81656 12.8166 3.20831 12.3333 3.20831C10.1087 3.20831 8.52826 3.21017 7.32932 3.37137C6.15555 3.52918 5.47929 3.82512 4.98555 4.31887C4.4918 4.81261 4.19585 5.48887 4.03804 6.66264C3.87685 7.86158 3.87499 9.44202 3.87499 11.6666C3.87499 12.1499 3.48324 12.5416 2.99999 12.5416C2.51674 12.5416 2.12499 12.1499 2.12499 11.6666L2.12499 11.6008C2.12497 9.45677 2.12496 7.75854 2.30365 6.42945C2.48755 5.06163 2.87502 3.95452 3.74811 3.08143C4.6212 2.20834 5.72831 1.82087 7.09613 1.63697C8.42522 1.45828 10.1235 1.45829 12.2675 1.45831ZM22.004 3.37137C20.8051 3.21017 19.2246 3.20831 17 3.20831C16.5167 3.20831 16.125 2.81656 16.125 2.33331C16.125 1.85006 16.5167 1.45831 17 1.45831L17.0658 1.45831C19.2099 1.45829 20.9081 1.45828 22.2372 1.63697C23.605 1.82087 24.7121 2.20834 25.5852 3.08143C26.4583 3.95452 26.8458 5.06163 27.0297 6.42945C27.2084 7.75854 27.2083 9.45678 27.2083 11.6008V11.6666C27.2083 12.1499 26.8166 12.5416 26.3333 12.5416C25.8501 12.5416 25.4583 12.1499 25.4583 11.6666C25.4583 9.44202 25.4565 7.86158 25.2953 6.66264C25.1375 5.48887 24.8415 4.81261 24.3478 4.31887C23.854 3.82512 23.1778 3.52918 22.004 3.37137ZM2.99999 15.4583C3.48324 15.4583 3.87499 15.8501 3.87499 16.3333C3.87499 18.5579 3.87685 20.1384 4.03804 21.3373C4.19585 22.5111 4.4918 23.1873 4.98555 23.6811C5.47929 24.1748 6.15555 24.4708 7.32932 24.6286C8.52826 24.7898 10.1087 24.7916 12.3333 24.7916C12.8166 24.7916 13.2083 25.1834 13.2083 25.6666C13.2083 26.1499 12.8166 26.5416 12.3333 26.5416H12.2675C10.1235 26.5417 8.42522 26.5417 7.09613 26.363C5.72831 26.1791 4.6212 25.7916 3.74811 24.9185C2.87502 24.0454 2.48755 22.9383 2.30365 21.5705C2.12496 20.2414 2.12497 18.5432 2.12499 16.3991L2.12499 16.3333C2.12499 15.8501 2.51674 15.4583 2.99999 15.4583ZM26.3333 15.4583C26.8166 15.4583 27.2083 15.8501 27.2083 16.3333V16.3991C27.2083 18.5432 27.2084 20.2414 27.0297 21.5705C26.8458 22.9383 26.4583 24.0454 25.5852 24.9185C24.7121 25.7916 23.605 26.1791 22.2372 26.363C20.9081 26.5417 19.2099 26.5417 17.0658 26.5416H17C16.5167 26.5416 16.125 26.1499 16.125 25.6666C16.125 25.1834 16.5167 24.7916 17 24.7916C19.2246 24.7916 20.8051 24.7898 22.004 24.6286C23.1778 24.4708 23.854 24.1748 24.3478 23.6811C24.8415 23.1873 25.1375 22.5111 25.2953 21.3373C25.4565 20.1384 25.4583 18.5579 25.4583 16.3333C25.4583 15.8501 25.8501 15.4583 26.3333 15.4583Z" fill="black"/>
</svg>
