<svg width="29" height="28" viewBox="0 0 29 28" fill="none" xmlns="http://www.w3.org/2000/svg">
<path d="M14.3334 14L24.8334 3.5" stroke="black" stroke-width="1.3" stroke-linecap="round" stroke-linejoin="round"/>
<path d="M21.758 6.57535C19.898 4.71906 17.4091 3.62848 14.7836 3.51937C12.158 3.41026 9.58718 4.29057 7.57961 5.98615C5.57204 7.68172 4.274 10.069 3.94228 12.6758C3.61056 15.2826 4.26933 17.9189 5.78827 20.0633C7.3072 22.2076 9.57564 23.7037 12.1448 24.2556C14.714 24.8076 17.3968 24.3751 19.6624 23.0438C21.9279 21.7125 23.6113 19.5793 24.3795 17.0663C25.1476 14.5533 24.9446 11.8435 23.8105 9.47299" stroke="black" stroke-width="1.3" stroke-linecap="round" stroke-linejoin="round"/>
<path d="M18.0457 10.2877C17.1777 9.41977 16.0331 8.88342 14.8107 8.77186C13.5883 8.6603 12.3655 8.98058 11.3547 9.67704C10.344 10.3735 9.60925 11.4021 9.2782 12.5841C8.94715 13.766 9.04072 15.0266 9.54265 16.1468C10.0446 17.2669 10.9231 18.1758 12.0256 18.7154C13.1281 19.255 14.3848 19.3912 15.5773 19.1004C16.7698 18.8096 17.8228 18.1101 18.5531 17.1236C19.2834 16.137 19.6449 14.9257 19.5748 13.7003" stroke="black" stroke-width="1.3" stroke-linecap="round" stroke-linejoin="round"/>
</svg>
