<svg width="128" height="32" viewBox="0 0 128 32" fill="none" xmlns="http://www.w3.org/2000/svg">
<g clip-path="url(#clip0_1_1716)">
<path d="M17.8893 19.2359C17.077 20.0305 16.5733 21.1378 16.5733 22.3606C16.5733 23.5835 17.077 24.6907 17.8893 25.4854V31.5037C14.0649 30.225 11.3095 26.6152 11.3095 22.3606V10.1359C11.3223 10.1134 11.335 10.0928 11.3448 10.0732C12.5295 7.83617 13.6475 7.24434 15.0957 7.24434C17.1936 7.24434 17.7992 8.52501 17.8893 8.75332V19.2359Z" fill="#D9D9D9"/>
<path d="M20.9484 12.7224C19.8784 12.7224 18.8505 12.8968 17.8893 13.2182C14.0649 14.4969 11.3095 18.1067 11.3095 22.3612C11.3095 26.6158 14.0649 30.2256 17.8893 31.5043C18.8505 31.8257 19.8794 32.0001 20.9484 32.0001C26.272 32.0001 30.5873 27.6848 30.5873 22.3612C30.5873 17.0377 26.272 12.7224 20.9484 12.7224ZM20.9484 26.7373C19.7579 26.7373 18.6781 26.2591 17.8893 25.486C17.077 24.6923 16.5733 23.5841 16.5733 22.3612C16.5733 21.1384 17.077 20.0311 17.8893 19.2365C18.6791 18.4634 19.7589 17.9852 20.9484 17.9852C23.3608 17.9852 25.3235 19.9478 25.3235 22.3603C25.3245 24.7746 23.3618 26.7373 20.9484 26.7373Z" fill="#D9D9D9"/>
<path d="M17.887 3.28076V8.75426C17.7959 8.52595 17.1913 7.24528 15.0935 7.24528C13.6462 7.24528 12.5272 7.83711 11.3426 10.0741C11.3318 10.0937 11.32 10.1153 11.3073 10.1368C10.9202 10.7875 9.80712 12.1789 8.645 12.706C4.65207 14.5149 0.814941 10.9296 0.814941 10.9296C0.814941 10.9296 3.88092 8.80521 6.84598 5.86269C8.44707 4.27434 9.93058 1.86781 11.5836 0.862472C12.5184 0.294153 13.4777 0.00019455 14.3566 0.00019455C15.3992 0.00019455 16.3271 0.359802 16.9229 0.954577C17.5186 1.55033 17.887 2.37243 17.887 3.28076Z" fill="#D9D9D9"/>
<path d="M17.8997 8.75234V13.2176C14.0753 14.4963 11.32 18.1061 11.32 22.3606V10.1359C11.3327 10.1134 11.3454 10.0928 11.3552 10.0732C12.5399 7.83617 13.6579 7.24434 15.1061 7.24434C17.204 7.24336 17.8096 8.52403 17.8997 8.75234Z" fill="#D9D9D9"/>
<path d="M48.4269 2.90928V31.6846H42.3434V8.6861H42.1753L35.5873 12.8209V7.41994L42.7094 2.90928H48.4269Z" fill="#D9D9D9"/>
<path d="M50.9547 2.41517H57.7207V31.685H50.9547V2.41517Z" fill="#D9D9D9"/>
<path d="M59.5974 3.67975C59.5974 1.62226 61.2196 0 63.6332 0C66.0073 0 67.6295 1.62226 67.6295 3.67975C67.6295 5.69768 66.0073 7.31994 63.6332 7.31994C61.2196 7.31994 59.5974 5.69768 59.5974 3.67975ZM60.2305 9.61484H66.9965V31.6934H60.2305V9.61484Z" fill="#D9D9D9"/>
<path d="M69.5328 2.41517H76.2988V18.5982L82.9857 9.61641H91.3344L82.1548 20.6952L91.4135 31.6949H83.0252L76.2988 22.4362V31.6949H69.5328V2.41517Z" fill="#D9D9D9"/>
<path d="M92.6798 15.2337H83.0452V9.61514H92.6798V4.234H99.4458V9.61514H103.877V15.2337H99.4458V24.0968C99.4458 25.4025 99.9998 25.9564 101.503 25.9564H103.917V31.6937H100.475C95.8848 31.6937 92.6798 29.7549 92.6798 24.0176V15.2337Z" fill="#D9D9D9"/>
<path d="M116.195 32.0003C109.706 32.0003 105.037 27.6479 105.037 20.6445C105.037 13.6411 109.627 9.29862 116.195 9.29862C122.635 9.29862 127.185 13.5719 127.185 20.2983C127.185 20.9314 127.145 21.604 127.066 22.2767H111.764C112.001 25.1651 113.782 26.5104 115.958 26.5104C117.857 26.5104 118.925 25.5608 119.479 24.3737H126.681C125.602 28.6866 121.685 32.0003 116.195 32.0003ZM111.803 18.5178H120.271C120.271 16.1042 118.371 14.7193 116.116 14.7193C113.9 14.7193 112.199 16.0646 111.803 18.5178Z" fill="#D9D9D9"/>
</g>
<defs>
<clipPath id="clip0_1_1716">
<rect width="126.37" height="32.0003" fill="white" transform="translate(0.814941)"/>
</clipPath>
</defs>
</svg>
